<svg width="14" height="15" viewBox="0 0 14 15" fill="none" xmlns="http://www.w3.org/2000/svg">
<path d="M7.00033 1.95288C10.222 1.95288 12.8337 4.56455 12.8337 7.78621C12.8337 11.0079 10.222 13.6195 7.00033 13.6195C3.77866 13.6195 1.16699 11.0079 1.16699 7.78621C1.16699 4.56455 3.77866 1.95288 7.00033 1.95288ZM8.79823 5.05929L7.00033 6.85799L5.20344 5.05929C4.94716 4.80301 4.53164 4.80301 4.27536 5.05929C4.01908 5.31558 4.01908 5.73109 4.27536 5.98737L6.07283 7.78694L4.27536 9.58725C4.01908 9.84353 4.01908 10.259 4.27536 10.5153C4.53164 10.7716 4.94716 10.7716 5.20344 10.5153L7.00033 8.7159L8.79823 10.5153C9.05451 10.7716 9.47003 10.7716 9.72631 10.5153C9.98259 10.259 9.98259 9.84353 9.72631 9.58725L7.92783 7.78694L9.72631 5.98737C9.98259 5.73109 9.98259 5.31558 9.72631 5.05929C9.47003 4.80301 9.05451 4.80301 8.79823 5.05929Z" fill="#818E95"/>
</svg>
